<?xml version="1.0" standalone="no"?>
<!DOCTYPE svg PUBLIC "-//W3C//DTD SVG 20010904//EN"
 "http://www.w3.org/TR/2001/REC-SVG-20010904/DTD/svg10.dtd">
<svg version="1.0" xmlns="http://www.w3.org/2000/svg"
 width="1900.000000pt" height="1268.000000pt" viewBox="0 0 1900.000000 1268.000000"
 preserveAspectRatio="xMidYMid meet">

<g transform="translate(0.000000,1268.000000) scale(0.100000,-0.100000)"
fill="#000000" stroke="none">
<path d="M4905 10654 c-38 -30 -89 -66 -113 -81 -42 -25 -53 -45 -13 -23 17 9
21 8 21 -5 0 -21 -39 -58 -55 -51 -9 3 -12 -1 -10 -14 5 -25 -122 -150 -150
-149 -17 1 -17 2 -2 6 9 2 17 11 17 19 0 8 4 13 8 10 5 -3 15 3 23 12 8 9 32
32 53 50 21 18 36 35 34 38 -3 2 -22 -11 -43 -31 -22 -19 -44 -35 -49 -35 -17
-1 -78 -59 -72 -69 3 -5 -5 -16 -19 -25 -28 -19 -34 -10 -7 10 9 7 12 14 6 14
-6 0 -21 -11 -35 -26 -17 -18 -19 -23 -6 -18 29 11 19 -1 -28 -35 -25 -18 -43
-36 -41 -40 8 -12 -61 -74 -72 -67 -6 3 -14 1 -18 -5 -4 -8 -3 -9 4 -5 7 4 12
4 12 -1 0 -4 -22 -24 -47 -43 -52 -39 -168 -135 -229 -189 -22 -20 -53 -47
-69 -60 -27 -22 -27 -25 -10 -37 10 -7 21 -15 25 -16 17 -6 20 -76 5 -88 -11
-9 -12 -16 -5 -25 8 -9 8 -15 0 -20 -5 -3 -10 -3 -10 2 0 4 -11 -9 -26 -30
-14 -21 -29 -35 -33 -32 -5 2 -14 -2 -21 -10 -7 -8 -9 -15 -5 -15 4 0 2 -7 -5
-15 -7 -8 -15 -13 -19 -11 -7 4 -32 -20 -26 -25 1 -2 -3 -10 -11 -17 -8 -7
-14 -10 -14 -6 0 4 -13 -5 -30 -21 -16 -16 -30 -35 -30 -42 0 -7 -6 -10 -15
-6 -9 3 -15 2 -14 -3 1 -5 1 -16 0 -24 -1 -13 -2 -13 -11 0 -7 11 -10 11 -10
2 0 -17 -46 -63 -55 -54 -4 4 -5 3 -4 -3 5 -13 -32 -55 -43 -49 -4 3 -8 0 -8
-6 0 -14 -25 -40 -39 -40 -5 0 -13 -5 -17 -12 -5 -7 -3 -8 7 -3 12 8 12 6 0
-8 -7 -9 -17 -14 -22 -11 -5 3 -8 1 -7 -4 4 -13 -123 -132 -134 -126 -5 3 -7
0 -6 -8 2 -7 -3 -12 -9 -10 -7 1 -13 -4 -13 -12 0 -18 -118 -132 -133 -128 -7
2 -9 0 -5 -4 5 -4 -8 -18 -27 -31 -20 -13 -33 -28 -30 -33 8 -14 -29 -30 -53
-23 -16 4 -22 1 -22 -11 0 -9 8 -16 18 -16 14 0 12 -4 -8 -19 -13 -11 -29 -17
-34 -14 -5 3 -6 2 -3 -4 8 -13 -47 -66 -58 -56 -4 5 -5 3 -2 -3 7 -13 -36 -57
-46 -47 -4 3 -7 -1 -7 -11 0 -10 -12 -21 -31 -28 -19 -6 -28 -15 -25 -24 3 -7
0 -16 -6 -20 -7 -5 -8 -2 -3 6 5 9 4 11 -3 6 -7 -4 -12 -13 -12 -21 0 -7 -9
-17 -20 -20 -11 -3 -20 -11 -20 -16 0 -6 -5 -7 -10 -4 -6 4 -9 3 -8 -2 4 -13
-25 -53 -38 -53 -7 0 -14 -7 -18 -15 -3 -8 -17 -20 -31 -27 -14 -6 -25 -16
-25 -22 0 -13 -57 -66 -72 -66 -5 0 -6 -5 -3 -10 3 -6 -2 -13 -12 -17 -10 -4
-24 -15 -31 -25 -7 -10 -19 -18 -26 -18 -8 0 -16 -9 -19 -21 -3 -12 -10 -18
-16 -14 -10 5 -15 -7 -12 -27 0 -4 -7 -4 -16 -1 -10 4 -14 2 -10 -4 4 -5 -5
-21 -18 -33 -14 -13 -25 -20 -25 -15 0 4 -9 0 -20 -10 -11 -10 -17 -22 -14
-27 3 -5 -8 -13 -25 -19 -20 -7 -30 -17 -29 -28 2 -10 -3 -16 -14 -15 -9 1
-14 -4 -12 -11 3 -7 -4 -15 -15 -18 -12 -3 -21 -12 -21 -21 0 -9 -4 -16 -10
-16 -5 0 -20 -11 -34 -25 -14 -14 -30 -25 -35 -25 -6 0 -8 -7 -5 -15 5 -11 2
-13 -12 -8 -9 3 -15 2 -12 -3 7 -11 -17 -36 -26 -27 -3 3 -10 -6 -16 -21 -6
-17 -24 -33 -46 -42 -24 -10 -34 -20 -30 -30 3 -7 1 -14 -5 -14 -13 0 -105
-91 -102 -101 2 -5 -5 -5 -14 -2 -12 5 -15 2 -10 -10 3 -9 2 -18 -3 -18 -6 -1
-14 -2 -20 -3 -22 -3 -69 -57 -64 -74 5 -14 4 -15 -5 -2 -9 13 -13 11 -28 -9
-9 -14 -25 -33 -34 -42 -10 -10 -15 -20 -12 -22 3 -3 -5 -3 -16 0 -12 3 -21 2
-19 -3 3 -11 -49 -64 -62 -64 -6 0 -9 -3 -8 -7 3 -9 -95 -108 -135 -138 -15
-11 -27 -28 -27 -38 0 -10 -4 -16 -9 -13 -9 6 -38 -23 -33 -33 2 -3 -2 -7 -10
-9 -9 -2 -8 0 2 7 8 6 10 11 5 11 -6 0 -23 -16 -39 -35 -16 -19 -33 -32 -37
-29 -5 3 -9 -2 -9 -10 0 -9 -4 -16 -10 -16 -5 0 -10 -7 -10 -15 0 -8 -5 -15
-11 -15 -11 0 -39 -24 -39 -34 0 -8 -61 -66 -70 -66 -5 0 -23 -14 -39 -32 -22
-24 -27 -35 -18 -41 7 -5 4 -6 -10 -2 -12 3 -24 1 -28 -5 -3 -5 0 -10 7 -10 7
0 2 -6 -11 -13 -13 -6 -23 -16 -23 -22 0 -5 -8 -13 -19 -17 -11 -4 -17 -12
-14 -18 4 -6 3 -10 -2 -9 -18 3 -36 -1 -30 -7 6 -6 -16 -34 -26 -34 -20 0
-159 -139 -151 -151 3 -5 0 -9 -7 -9 -6 0 -26 -12 -44 -27 -18 -16 -42 -36
-53 -45 -12 -10 -20 -23 -18 -30 1 -7 1 -9 -2 -4 -2 4 -31 -18 -63 -50 -32
-31 -56 -61 -53 -66 3 -4 -3 -5 -12 -1 -11 4 -15 2 -11 -4 4 -6 -2 -13 -13
-16 -11 -3 -20 -12 -20 -21 0 -9 -4 -16 -10 -16 -12 0 -120 -102 -120 -113 0
-5 6 -5 12 -1 7 4 10 3 5 -1 -4 -5 -17 -10 -29 -12 -13 -2 -37 -20 -56 -41
-57 -64 -114 -122 -121 -122 -3 0 -15 -7 -26 -16 -17 -13 -18 -16 -5 -24 12
-8 11 -10 -7 -10 -16 0 -21 -4 -16 -15 3 -9 2 -15 -3 -14 -23 4 -35 -3 -32
-18 2 -12 -4 -17 -22 -18 -20 0 -24 -4 -22 -22 2 -16 -2 -23 -13 -23 -9 0 -28
-11 -43 -25 -15 -14 -34 -25 -42 -25 -12 0 -13 -2 -1 -9 10 -7 6 -14 -18 -32
-22 -16 -27 -25 -19 -31 10 -6 10 -8 0 -8 -10 0 -12 -91 -12 -439 l1 -440 61
57 c34 31 80 75 103 97 23 22 88 83 145 135 57 52 129 119 159 148 31 29 103
97 160 150 58 53 114 106 125 117 11 11 35 32 53 46 30 24 162 148 438 410 49
47 124 117 165 154 41 38 100 92 130 121 30 28 101 93 157 145 56 52 160 148
230 214 71 66 180 167 243 225 62 58 133 123 156 145 24 22 95 90 160 150 65
61 161 151 214 200 52 50 136 126 184 170 179 161 234 211 381 349 145 137
241 229 337 323 42 42 49 45 65 32 16 -12 17 -12 6 1 -10 13 2 28 70 90 148
137 472 441 490 460 9 11 15 20 12 20 -3 0 2 14 10 31 9 17 14 33 12 36 -10 9
-69 -29 -130 -85 -103 -93 -432 -396 -572 -526 -71 -67 -165 -154 -210 -195
-44 -41 -109 -102 -145 -136 -36 -33 -153 -141 -260 -240 -107 -99 -258 -238
-335 -310 -77 -72 -385 -357 -685 -635 -300 -277 -590 -548 -644 -602 -55 -54
-102 -98 -105 -98 -12 -1 -121 -108 -121 -119 0 -6 -3 -10 -8 -8 -4 1 -27 -16
-51 -38 -23 -22 -49 -44 -57 -48 -8 -4 -14 -15 -14 -23 0 -8 -4 -13 -9 -10
-11 7 -33 -18 -24 -27 3 -4 -1 -7 -9 -7 -15 0 -103 -78 -279 -247 -42 -41 -89
-84 -105 -96 -16 -13 -51 -45 -79 -71 -27 -27 -120 -113 -205 -191 -85 -78
-164 -152 -174 -164 -11 -11 -24 -21 -29 -21 -5 0 2 11 17 25 14 13 26 28 26
33 0 6 7 13 16 16 8 3 12 10 9 16 -4 6 1 7 11 3 12 -4 15 -3 10 6 -4 6 -3 10
2 9 6 -2 11 2 12 7 0 6 10 13 21 17 12 5 17 13 13 19 -4 7 -3 9 2 6 6 -3 29
12 53 34 37 35 41 42 29 56 -10 13 -10 15 0 9 7 -4 20 -2 29 6 14 11 16 11 8
-1 -5 -10 -4 -12 3 -7 7 4 12 14 12 22 0 8 5 14 11 14 14 0 89 74 89 88 0 11
13 16 32 13 4 0 5 6 2 14 -4 8 -1 15 5 15 6 0 11 5 11 10 0 13 32 45 53 53 9
3 17 11 17 17 0 5 9 10 21 10 11 0 18 4 15 9 -3 5 1 11 9 15 9 3 12 12 8 22
-5 13 -2 16 8 12 17 -7 54 21 54 40 0 7 11 19 25 26 14 7 24 18 22 24 -1 7 5
12 14 12 8 0 12 5 9 10 -3 6 3 10 14 10 12 0 21 7 21 16 0 8 4 13 8 10 4 -2
17 9 27 25 11 16 25 29 32 29 7 0 10 7 7 15 -6 14 6 20 30 16 5 -1 6 7 3 19
-3 11 -1 18 4 15 5 -4 14 -1 21 5 7 6 24 19 36 30 13 10 21 24 17 29 -3 6 1
11 10 11 8 0 20 11 25 24 5 13 18 27 30 31 12 4 19 9 16 12 -7 7 33 43 47 43
5 0 6 7 3 16 -3 8 -2 12 4 9 6 -3 10 1 10 10 0 9 4 14 9 11 5 -3 23 10 40 30
18 20 36 32 43 28 7 -4 8 -3 4 5 -9 14 12 36 42 45 12 4 22 14 22 21 0 8 14
22 30 32 17 9 30 24 30 31 0 8 6 12 14 9 8 -3 19 5 26 18 7 14 18 21 23 18 6
-4 8 0 4 9 -3 10 3 20 19 28 13 7 26 22 30 32 3 10 10 16 15 13 5 -4 9 -1 9 5
0 14 25 40 39 40 6 0 11 5 11 11 0 7 9 9 21 6 15 -4 19 -2 15 9 -4 9 2 14 17
14 16 0 18 3 8 9 -16 10 -6 31 15 31 8 0 12 5 9 10 -3 6 -1 10 5 10 7 0 10 7
7 14 -4 10 -1 13 9 9 7 -3 14 0 14 6 0 7 8 11 17 9 12 -2 17 3 15 15 -2 10 3
17 13 17 8 0 15 4 15 8 0 5 11 14 24 22 16 8 22 18 19 28 -4 10 -2 13 5 8 7
-4 12 -1 12 8 0 9 5 16 11 16 6 0 25 16 43 35 19 19 41 35 50 35 9 0 15 3 15
8 -4 21 2 43 9 38 5 -3 18 4 30 14 12 11 26 20 32 20 5 0 10 5 10 10 0 6 8 10
18 10 11 0 13 3 5 8 -13 8 16 51 32 46 6 -2 21 5 35 16 20 16 21 19 5 13 -17
-6 -18 -4 -8 9 7 8 9 19 5 23 -4 5 -1 5 6 1 14 -8 62 18 62 34 0 5 11 20 25
34 14 14 25 23 25 20 0 -3 18 13 40 36 22 23 40 46 40 51 0 5 10 9 23 9 18 0
19 2 7 10 -13 8 -12 10 3 10 9 0 17 7 17 16 0 9 5 14 12 12 15 -5 58 31 58 49
0 8 5 11 10 8 6 -3 13 1 16 10 4 9 13 14 21 10 11 -4 13 -1 9 11 -4 11 1 18
14 21 11 3 20 9 20 14 0 5 11 14 25 19 14 5 25 14 25 20 0 5 7 10 16 10 8 0
12 5 9 11 -7 10 26 49 42 49 5 0 14 9 21 20 7 12 18 18 24 14 7 -4 8 -3 4 5
-8 12 30 50 51 51 7 0 10 7 7 15 -4 10 0 13 14 10 15 -3 19 1 15 16 -4 13 -1
19 8 17 8 -2 13 2 12 9 -2 6 7 15 19 19 26 8 48 28 48 44 0 7 8 9 22 4 19 -6
21 -5 11 8 -10 11 -7 17 16 31 15 9 30 15 33 12 2 -2 5 5 5 17 1 11 3 21 5 22
2 0 17 11 35 24 18 12 37 22 42 22 6 0 8 7 5 15 -4 10 3 18 19 24 25 10 54 48
49 65 -2 5 3 6 11 3 8 -3 20 -1 28 4 11 7 11 9 1 9 -23 0 -2 20 21 20 18 0 19
2 7 10 -13 8 -11 11 8 16 12 4 22 9 22 13 0 3 18 17 39 31 35 21 38 26 29 44
-10 19 -10 20 5 7 14 -11 17 -11 18 0 1 8 1 17 0 22 0 4 5 7 13 7 8 0 17 7 20
16 4 10 12 14 22 10 12 -4 15 -2 10 9 -4 10 1 15 15 15 11 0 18 4 14 9 -3 5 4
13 16 16 11 4 18 13 15 20 -3 8 5 16 20 19 14 4 22 11 18 17 -3 6 3 13 15 16
12 3 21 12 21 19 0 8 7 14 15 14 8 0 15 7 15 15 0 9 7 18 16 22 9 3 33 23 54
44 21 21 40 35 44 32 3 -4 6 -1 6 6 0 7 14 24 30 38 17 13 27 30 23 36 -4 7 0
8 11 4 13 -5 19 -1 23 13 3 13 14 20 28 20 23 0 40 24 29 41 -3 5 0 9 6 9 7 0
36 25 66 55 30 30 54 51 54 48 0 -3 11 7 25 23 14 16 25 32 25 36 0 4 7 5 15
2 11 -5 13 -2 9 9 -4 12 2 18 20 23 14 3 24 10 21 14 -3 4 2 10 10 14 8 3 15
11 15 18 0 14 34 48 60 60 11 5 11 7 2 7 -7 1 -11 5 -7 11 3 5 13 6 22 3 10
-4 14 -2 9 5 -3 6 3 13 14 17 11 3 20 13 20 21 0 20 55 75 65 66 5 -4 5 1 2
11 -4 11 -1 17 8 17 8 0 15 5 15 11 0 5 5 7 12 3 6 -4 8 -3 4 4 -3 6 2 15 11
21 10 6 15 11 11 11 -4 0 6 13 23 29 19 18 28 35 23 42 -5 8 -2 11 7 7 11 -4
23 11 43 53 15 32 32 59 38 59 6 0 7 8 4 17 -4 10 -4 14 0 11 3 -4 12 -1 19 5
9 9 10 18 3 32 -8 16 -8 18 2 8 13 -12 43 -6 35 7 -7 11 20 61 28 53 4 -3 11
6 16 21 6 14 14 26 19 26 5 0 8 11 7 25 -2 17 2 25 13 25 8 0 13 3 9 6 -3 4 4
15 16 25 16 14 17 17 5 13 -10 -3 -18 -1 -18 5 0 6 7 11 15 11 9 0 20 10 25
23 5 12 18 33 29 47 17 22 18 25 3 36 -14 10 -12 11 11 9 24 -3 26 -1 16 17
-7 13 -7 18 -1 14 17 -10 24 12 11 36 -11 20 -10 21 3 10 13 -10 17 -8 28 17
6 16 19 32 27 35 12 5 11 10 -8 27 l-24 20 23 -6 c13 -4 22 -2 22 4 0 6 -8 11
-17 11 -13 0 -10 5 10 19 16 10 28 21 28 25 -3 20 1 26 17 27 13 0 14 2 2 6
-31 12 -41 25 -29 39 16 20 -1 17 -23 -3 -13 -11 -18 -12 -18 -3 0 9 -3 10
-13 1 -8 -6 -17 -7 -22 -3 -4 4 -6 -3 -3 -15 4 -16 2 -20 -8 -16 -8 3 -28 0
-44 -7 -26 -11 -32 -19 -32 -40 0 -3 -14 -16 -30 -29 -36 -29 102 182 242 369
47 63 94 128 104 145 11 16 57 78 103 137 76 98 83 110 83 152 0 61 -16 60
-105 -10z m-115 -177 c0 -2 -10 -12 -22 -23 l-23 -19 19 23 c18 21 26 27 26
19z m-76 -81 c-16 -13 -31 -22 -34 -20 -2 3 9 16 25 29 39 30 46 23 9 -9z
m-75 -66 c-18 -22 -35 -40 -38 -40 -3 0 -26 -18 -51 -40 -25 -22 -49 -40 -54
-40 -4 0 16 21 45 47 30 27 68 62 84 79 43 45 52 41 14 -6z m51 6 c0 -2 -8
-10 -17 -17 -16 -13 -17 -12 -4 4 13 16 21 21 21 13z m-146 -57 c-22 -22 -48
-41 -56 -43 -9 -1 -23 -8 -32 -15 -9 -8 -18 -12 -20 -10 -4 4 133 106 144 108
3 1 -14 -17 -36 -40z m6 -63 c0 -2 -8 -10 -17 -17 -16 -13 -17 -12 -4 4 13 16
21 21 21 13z m-168 -116 c-23 -21 -52 -46 -66 -55 -14 -10 -26 -23 -26 -29 0
-19 -55 -67 -71 -61 -18 6 -46 -11 -35 -22 5 -4 11 -2 13 5 3 6 9 12 14 12 17
0 -1 -20 -43 -46 -22 -14 -53 -41 -70 -60 -16 -19 -34 -32 -38 -29 -5 3 -10 0
-12 -7 -2 -6 -10 -8 -16 -4 -9 5 2 21 33 52 25 24 51 44 56 44 6 0 9 7 6 15
-4 8 -1 17 5 21 7 4 8 3 4 -4 -4 -7 -1 -12 8 -12 8 0 22 12 31 28 17 28 87 89
98 85 9 -3 62 50 70 70 4 10 20 25 37 35 16 9 30 22 31 27 1 6 3 2 6 -8 3 -11
-9 -31 -35 -57z m-2 -74 c0 -2 -8 -10 -17 -17 -16 -13 -17 -12 -4 4 13 16 21
21 21 13z m-40 -10 c0 -3 -4 -8 -10 -11 -5 -3 -10 -1 -10 4 0 6 5 11 10 11 6
0 10 -2 10 -4z m0 -30 c0 -2 -8 -10 -17 -17 -16 -13 -17 -12 -4 4 13 16 21 21
21 13z m-50 -16 c0 -5 -5 -10 -11 -10 -5 0 -7 5 -4 10 3 6 8 10 11 10 2 0 4
-4 4 -10z m380 -40 c0 -4 -9 -6 -21 -3 -15 4 -17 8 -8 14 14 8 29 3 29 -11z
m-120 -25 c11 -13 10 -14 -4 -9 -9 3 -16 10 -16 15 0 13 6 11 20 -6z m-380
-40 c-7 -8 -18 -15 -24 -15 -6 0 -2 7 8 15 25 19 32 19 16 0z m-71 -65 c-18
-22 -35 -38 -37 -35 -5 5 57 75 65 75 2 0 -11 -18 -28 -40z m-1629 -1650 c0
-5 -5 -10 -11 -10 -5 0 -7 5 -4 10 3 6 8 10 11 10 2 0 4 -4 4 -10z m-1480
-1424 c0 -3 -4 -8 -10 -11 -5 -3 -10 -1 -10 4 0 6 5 11 10 11 6 0 10 -2 10 -4z
m-500 -1296 c0 -5 -4 -10 -10 -10 -5 0 -10 5 -10 10 0 6 5 10 10 10 6 0 10 -4
10 -10z m-80 -145 c-7 -8 -17 -15 -22 -15 -6 0 -5 7 2 15 7 8 17 15 22 15 6 0
5 -7 -2 -15z m-235 -155 c-3 -5 -11 -10 -16 -10 -6 0 -7 5 -4 10 3 6 11 10 16
10 6 0 7 -4 4 -10z"/>
<path d="M4245 10000 c-10 -11 -15 -20 -11 -20 11 0 39 30 34 36 -3 2 -13 -5
-23 -16z"/>
<path d="M4080 9850 c-13 -11 -21 -22 -18 -25 2 -3 15 6 28 20 28 30 22 33
-10 5z"/>
<path d="M4179 10013 c-13 -16 -12 -17 4 -4 16 13 21 21 13 21 -2 0 -10 -8
-17 -17z"/>
<path d="M3895 9859 c-4 -6 -5 -12 -2 -15 2 -3 7 2 10 11 7 17 1 20 -8 4z"/>
<path d="M3921 9856 c-9 -10 -8 -15 3 -19 8 -3 16 2 19 14 6 22 -6 25 -22 5z"/>
<path d="M3964 9856 c-10 -8 -15 -18 -11 -22 4 -4 15 0 24 9 22 21 12 31 -13
13z"/>
<path d="M5430 9658 c0 -19 -204 -193 -226 -193 -33 0 -11 24 90 96 168 121
160 120 -38 -5 -85 -54 -122 -82 -110 -84 37 -7 33 -18 -26 -81 -33 -34 -57
-67 -54 -73 4 -6 2 -8 -3 -5 -6 4 -25 -10 -42 -31 -18 -20 -43 -49 -56 -64
-14 -15 -25 -30 -25 -33 0 -4 -26 -32 -57 -63 -32 -31 -57 -60 -55 -65 1 -5
-1 -6 -6 -3 -10 6 -53 -39 -45 -47 2 -3 -7 -13 -21 -22 -25 -17 -36 -45 -16
-45 5 0 7 7 4 15 -4 8 -1 15 6 15 6 0 20 10 31 23 10 12 18 17 19 11 0 -5 -16
-27 -35 -48 -19 -21 -35 -42 -35 -46 0 -12 -40 -44 -47 -37 -3 4 -1 7 5 7 6 0
18 14 27 30 15 29 5 44 -12 17 -4 -7 -30 -32 -58 -56 -27 -24 -49 -47 -47 -52
1 -5 -6 -12 -15 -16 -10 -3 -30 -20 -45 -36 -16 -17 -31 -28 -34 -25 -3 4 47
59 111 123 64 65 114 120 110 123 -3 3 -21 -12 -40 -34 -20 -22 -43 -38 -53
-36 -12 2 -13 0 -4 -6 9 -6 5 -12 -15 -22 -41 -20 -123 -102 -116 -114 3 -6 3
-8 -2 -4 -4 4 -23 -6 -42 -22 -18 -17 -39 -30 -45 -30 -12 0 39 59 82 94 14
12 39 35 55 52 17 17 38 34 48 37 9 4 17 12 16 19 0 10 -2 10 -6 0 -2 -6 -9
-10 -14 -6 -5 3 -26 -11 -47 -30 -20 -20 -43 -34 -50 -31 -7 3 -10 0 -7 -5 3
-6 -1 -10 -9 -10 -9 0 -16 -6 -16 -12 -1 -7 -14 -29 -31 -48 -16 -19 -27 -26
-23 -16 5 13 4 17 -4 12 -6 -3 -13 -2 -17 4 -12 19 -63 12 -70 -10 -4 -11 -11
-18 -16 -15 -5 3 -21 -6 -36 -21 -16 -15 -19 -21 -8 -13 19 14 19 13 3 -11 -9
-15 -23 -24 -34 -22 -16 3 -16 2 -3 -14 13 -16 12 -17 -16 -11 -16 3 -24 4
-17 1 18 -8 15 -37 -3 -30 -8 3 -15 1 -15 -4 0 -5 -7 -7 -16 -3 -10 4 -14 1
-12 -8 4 -18 -35 -56 -52 -51 -7 3 -10 1 -7 -4 8 -14 -19 -45 -42 -47 -11 0
-18 -3 -16 -5 5 -6 -66 -72 -77 -72 -4 0 -8 -7 -8 -16 0 -8 -4 -12 -10 -9 -5
3 -10 -1 -10 -9 0 -9 -5 -15 -12 -14 -7 2 -12 -4 -13 -12 0 -9 -8 -14 -18 -12
-17 3 -22 -8 -17 -38 1 -8 -1 -12 -5 -8 -4 3 -15 -2 -26 -13 -11 -11 -26 -16
-36 -13 -15 5 -15 4 -3 -4 12 -9 9 -13 -13 -21 -15 -6 -27 -13 -27 -16 0 -4 5
-3 11 1 7 4 10 1 7 -7 -3 -8 -16 -13 -29 -12 -13 1 -18 -1 -11 -4 18 -7 -14
-43 -39 -43 -10 0 -21 -5 -25 -12 -4 -7 -3 -8 4 -4 8 4 10 2 6 -8 -3 -8 -12
-12 -20 -9 -8 3 -14 -1 -14 -11 0 -8 -11 -18 -25 -22 -13 -3 -23 -9 -22 -13 4
-12 -38 -51 -56 -51 -10 0 -16 -4 -12 -9 3 -5 -3 -12 -14 -16 -11 -3 -21 -16
-23 -27 -2 -12 -10 -23 -18 -25 -13 -4 -13 -3 0 7 13 10 13 11 0 7 -8 -2 -14
-11 -12 -21 3 -18 -14 -22 -20 -4 -2 6 -12 -5 -22 -26 -9 -20 -21 -34 -26 -31
-5 3 -25 -11 -46 -30 -20 -19 -33 -35 -28 -35 4 0 -1 -7 -12 -15 -10 -8 -14
-15 -9 -15 6 0 11 -9 12 -21 l2 -21 -18 21 c-21 25 -33 27 -25 6 4 -8 1 -15
-5 -15 -7 0 -17 -5 -24 -10 -7 -6 -22 -19 -35 -29 -12 -10 -22 -23 -21 -27 3
-21 -2 -28 -11 -14 -8 13 -10 12 -10 -3 0 -9 -3 -16 -7 -16 -23 4 -34 -3 -31
-18 2 -9 -7 -22 -19 -28 -13 -7 -20 -15 -16 -18 3 -4 -3 -7 -14 -7 -20 0 -104
-81 -116 -112 -3 -10 -14 -18 -22 -18 -9 0 -13 -4 -10 -10 6 -9 -8 -14 -27
-11 -5 0 -8 -6 -8 -14 0 -8 -7 -15 -15 -15 -8 0 -15 -7 -15 -15 0 -9 -6 -12
-15 -9 -8 4 -15 1 -15 -5 0 -6 5 -11 10 -11 6 0 10 -4 10 -9 0 -5 -9 -7 -20
-4 -14 4 -35 -10 -75 -51 -31 -31 -61 -56 -66 -56 -6 0 -7 -4 -4 -10 3 -5 -1
-10 -10 -10 -11 0 -15 -5 -11 -16 4 -11 -4 -19 -29 -30 -24 -9 -33 -19 -29
-29 4 -10 0 -15 -13 -15 -24 0 -65 -29 -57 -41 3 -5 2 -8 -3 -7 -10 3 -46 -22
-57 -39 -5 -9 -2 -11 10 -6 12 4 15 3 10 -5 -4 -7 -14 -12 -22 -12 -22 0 -64
-30 -64 -46 0 -8 -5 -13 -12 -11 -7 1 -17 -8 -22 -20 -7 -14 -17 -21 -26 -18
-18 5 -48 -11 -38 -21 4 -3 -6 -17 -23 -31 -16 -14 -26 -29 -23 -34 3 -5 1 -8
-5 -7 -5 2 -38 -22 -72 -52 -95 -85 -108 -100 -102 -118 3 -12 2 -13 -4 -4 -7
9 -18 4 -46 -23 -20 -19 -40 -35 -46 -35 -5 0 -13 -9 -16 -20 -3 -11 -11 -20
-16 -20 -5 0 -38 -28 -72 -63 -36 -36 -69 -61 -78 -59 -8 3 -11 1 -7 -3 11
-12 -12 -35 -34 -35 -17 0 -18 -2 -8 -15 11 -13 10 -14 -4 -9 -9 3 -16 1 -16
-4 0 -18 -74 -82 -88 -77 -7 3 -10 1 -7 -4 3 -5 1 -12 -4 -16 -6 -3 -8 -12 -4
-20 3 -8 0 -15 -6 -15 -6 0 -11 5 -11 11 0 5 -19 -10 -43 -35 -24 -26 -51 -46
-61 -46 -9 0 -15 -4 -12 -9 6 -9 -60 -91 -74 -91 -4 0 -34 -25 -65 -55 -31
-30 -63 -55 -71 -55 -8 0 -13 -4 -10 -8 3 -5 -8 -22 -24 -37 -16 -15 -27 -31
-25 -36 3 -4 -3 -5 -13 -2 -21 5 -56 -23 -47 -38 4 -5 -2 -6 -11 -2 -13 5 -16
2 -12 -9 4 -9 -2 -21 -14 -29 -36 -24 -92 -73 -116 -101 -13 -16 -30 -28 -38
-28 -8 0 -14 -5 -14 -11 0 -6 -6 -9 -14 -6 -10 4 -12 0 -9 -14 4 -15 -1 -20
-26 -25 -17 -4 -28 -10 -26 -15 3 -4 -11 -26 -32 -48 -38 -42 -60 -53 -49 -26
3 8 1 15 -4 15 -6 0 -10 -10 -10 -23 0 -15 -9 -26 -29 -35 -19 -8 -28 -18 -24
-27 3 -9 -4 -18 -20 -24 -14 -5 -28 -15 -32 -21 -6 -9 -2 -9 14 -1 14 8 21 8
21 1 0 -9 -6 -11 -42 -14 -7 -1 -17 -7 -21 -13 -4 -7 -12 -13 -17 -13 -6 0
-19 -8 -30 -17 -14 -12 -16 -19 -8 -24 14 -9 7 -19 -16 -23 -9 -1 -15 -6 -14
-12 2 -5 -10 -11 -27 -14 -21 -4 -30 -11 -30 -25 0 -11 -8 -21 -18 -23 -9 -2
-17 -8 -17 -13 0 -13 -59 -63 -77 -65 -19 -3 -43 -24 -43 -38 0 -6 4 -4 10 4
5 8 12 11 17 7 10 -11 -18 -28 -36 -22 -9 4 -12 -1 -8 -15 4 -15 0 -20 -14
-20 -10 0 -19 -4 -19 -10 0 -5 -6 -10 -12 -10 -20 -1 -58 -36 -58 -54 0 -16
-6 -18 -48 -19 -18 0 -20 -2 -10 -14 9 -11 9 -16 -2 -23 -9 -6 -17 -4 -22 3
-5 8 -8 5 -8 -9 0 -12 -7 -21 -15 -21 -8 0 -15 4 -15 9 0 4 -5 8 -11 8 -6 0
-9 -6 -6 -12 2 -7 -10 -21 -26 -31 -16 -10 -26 -21 -22 -25 4 -4 10 -1 12 6 6
17 23 15 23 -3 0 -15 -11 -19 -38 -16 -8 1 -20 -3 -28 -10 -15 -12 -19 -30 -6
-28 20 3 19 -3 -3 -26 l-25 -24 0 -566 c0 -370 3 -565 10 -565 6 0 10 -5 10
-11 0 -5 -4 -7 -10 -4 -5 3 -10 1 -10 -5 0 -7 7 -9 16 -6 9 3 18 6 20 6 2 0
-3 11 -12 25 -9 14 -13 29 -9 33 4 4 10 1 12 -5 3 -7 9 -13 15 -13 6 0 7 7 4
16 -3 8 -2 13 3 9 5 -3 20 -1 33 4 12 6 17 10 11 10 -7 1 -13 6 -13 12 0 7 9
9 21 6 17 -5 18 -3 7 11 -8 10 -9 13 -1 9 6 -4 14 -3 18 3 3 5 12 10 18 10 7
0 6 -4 -3 -10 -9 -6 -10 -10 -3 -10 10 0 43 26 43 35 0 1 -7 2 -16 1 -9 0 -18
5 -20 12 -1 7 0 8 2 3 6 -11 63 3 78 20 8 9 6 9 -9 1 -11 -5 -28 -7 -37 -3
-14 5 -15 8 -3 25 10 13 23 17 44 14 16 -2 28 -1 25 4 -3 4 -15 8 -27 9 -21 0
-21 1 2 12 19 9 25 9 29 -1 2 -6 8 -12 14 -12 6 0 5 7 -3 16 -10 13 -10 17 2
25 8 5 19 9 26 9 7 0 10 7 7 15 -4 9 0 15 10 15 23 0 29 2 49 20 16 14 16 16
-5 32 l-23 18 23 0 c12 0 22 -4 22 -10 0 -5 7 -10 16 -10 13 0 14 3 5 14 -10
11 -8 16 6 20 10 3 23 16 28 28 6 13 19 23 31 24 12 1 27 5 34 9 11 7 9 10 -6
16 -18 7 -18 8 0 8 13 1 17 6 13 21 -4 15 0 20 16 20 18 0 19 2 7 10 -12 8 -9
10 13 10 16 0 26 4 22 10 -3 6 1 7 10 4 12 -5 16 -2 13 12 -2 12 4 20 17 22
11 3 29 11 40 19 16 12 16 14 3 10 -10 -4 -18 -3 -18 2 0 10 34 41 44 41 4 0
15 9 24 21 10 11 25 21 35 23 10 1 17 6 16 12 0 5 -5 8 -11 6 -5 -1 -8 3 -6
10 3 7 11 13 19 13 8 0 14 7 14 15 0 9 8 14 18 12 12 -2 21 4 24 17 6 24 18
27 27 9 4 -7 4 -2 2 11 -6 30 17 54 44 46 11 -4 20 -2 20 4 0 6 -4 11 -10 11
-5 0 -10 5 -10 11 0 6 8 8 19 4 13 -4 26 4 45 30 15 19 35 35 45 35 22 0 58
26 49 36 -5 4 -16 -1 -27 -10 -10 -10 -22 -13 -25 -8 -3 5 10 15 29 22 19 8
35 20 35 27 0 12 12 17 37 14 6 -1 14 3 18 9 3 6 0 7 -10 4 -11 -5 -14 -2 -9
10 3 8 11 14 17 13 7 -1 12 5 12 13 0 8 14 22 30 30 17 8 31 22 33 30 5 22 18
32 44 34 13 1 22 7 20 14 -3 18 23 42 45 42 11 0 26 14 37 34 10 19 28 37 40
40 18 5 19 8 6 16 -10 6 -11 10 -2 10 6 0 12 5 12 11 0 17 42 50 57 45 7 -3
15 -1 18 4 4 6 1 10 -4 10 -6 0 -11 5 -11 11 0 6 6 9 14 6 7 -3 19 0 25 6 8 8
11 7 11 -3 0 -7 3 -11 6 -8 3 4 1 15 -5 26 -10 18 -7 21 29 27 22 4 40 11 40
16 0 5 -4 9 -10 9 -5 0 -10 4 -10 10 0 5 7 7 15 4 13 -6 20 6 16 29 0 4 6 7
15 7 8 0 12 -4 9 -10 -3 -6 1 -7 9 -4 9 3 16 10 16 14 0 5 17 14 38 21 23 8
31 14 20 17 -9 2 -19 10 -22 18 -3 8 -1 12 4 9 5 -3 19 3 31 14 12 11 26 18
31 15 4 -3 8 0 8 5 0 6 -4 11 -10 11 -26 0 -6 20 25 26 19 3 38 11 41 16 4 6
-1 8 -14 4 -11 -4 -23 -2 -27 3 -7 12 39 26 54 16 7 -4 8 0 5 10 -9 22 25 46
56 40 19 -4 21 -3 10 5 -13 8 -12 10 4 10 15 0 17 5 12 28 -3 15 -3 21 0 15 3
-7 12 -13 19 -13 16 0 27 27 14 35 -16 10 2 27 22 22 11 -3 17 -2 14 2 -2 5 6
17 18 29 22 20 25 22 48 22 8 0 8 4 0 13 -8 11 -3 16 25 27 22 9 33 19 29 28
-2 7 -1 10 4 7 5 -3 13 -1 16 5 4 6 16 8 28 5 12 -2 16 -2 10 1 -15 7 -17 34
-3 34 6 0 10 7 10 16 0 11 6 14 20 9 19 -6 26 7 21 38 0 4 4 7 9 7 6 0 10 -4
10 -10 0 -5 5 -10 10 -10 12 0 14 26 3 33 -5 2 -3 3 2 1 6 -1 20 5 30 13 19
15 19 15 -2 8 -14 -4 -23 -2 -23 4 0 15 58 43 73 35 9 -5 9 -4 0 7 -17 17 -17
31 0 28 22 -5 86 41 80 57 -3 8 0 14 5 14 20 0 60 48 49 59 -7 7 -3 8 11 4 24
-6 51 15 44 35 -2 6 1 12 7 12 6 0 11 -5 11 -11 0 -5 5 -7 10 -4 6 4 10 16 8
27 -2 12 3 23 12 25 13 4 13 3 0 -7 -13 -10 -12 -11 3 -6 10 3 21 6 24 6 3 0
0 7 -7 15 -16 19 -16 19 40 36 25 8 44 20 43 27 -2 7 1 12 7 12 5 0 7 7 3 16
-5 14 -1 16 21 12 14 -3 29 -1 32 3 3 5 -1 9 -8 9 -7 1 1 12 17 25 18 15 37
22 48 19 9 -3 17 -1 17 5 0 6 -7 11 -15 11 -21 0 -19 9 7 31 13 12 29 17 41
13 12 -4 17 -2 13 4 -3 6 -1 14 5 17 5 4 8 14 5 22 -4 11 -1 13 14 8 12 -4 20
-2 20 5 0 8 6 8 23 0 20 -10 20 -10 4 3 -20 17 -12 51 10 43 8 -3 12 -2 8 3
-3 5 8 12 24 16 27 6 68 50 63 68 -1 4 9 5 24 3 21 -4 23 -2 14 9 -8 10 -5 19
15 39 28 28 41 34 29 14 -5 -9 -2 -8 10 1 9 8 15 20 12 28 -3 7 -1 13 3 13 5
0 12 -6 14 -12 3 -8 6 -7 6 4 1 9 10 20 21 23 21 7 28 25 9 25 -6 0 -4 6 4 14
8 8 22 14 33 13 14 -2 19 4 19 24 -1 18 4 25 12 22 7 -3 13 -1 13 5 0 14 48
21 55 8 2 -6 2 -1 0 10 -5 17 0 23 22 29 19 4 23 9 14 15 -10 6 -8 9 8 15 11
3 21 11 21 16 0 5 7 9 16 9 10 0 14 6 10 15 -4 10 1 15 14 15 13 0 18 5 13 16
-4 12 0 14 23 8 26 -6 27 -5 16 8 -11 14 -9 17 18 23 16 4 28 11 25 16 -10 15
15 51 31 45 9 -3 14 1 14 14 0 23 10 25 29 8 11 -11 12 -10 6 0 -8 16 21 52
43 52 9 0 13 3 9 6 -11 12 21 34 39 27 14 -5 16 -3 11 11 -4 9 -1 25 5 36 10
15 15 17 27 7 12 -10 13 -8 7 16 -7 31 -7 31 29 17 23 -9 25 -8 17 7 -12 20 9
46 30 38 7 -3 19 4 26 15 7 12 8 20 2 20 -5 0 -10 -5 -10 -11 0 -5 -5 -7 -11
-3 -14 9 17 28 46 29 15 0 20 7 20 25 0 26 11 29 50 15 19 -6 19 -6 3 8 -24
19 -23 31 2 24 11 -3 20 -1 20 4 0 5 -5 9 -11 9 -5 0 -7 4 -4 10 3 5 19 7 34
4 16 -3 31 -2 34 4 4 5 -5 7 -20 4 -18 -3 -24 -1 -19 7 4 6 12 8 18 5 6 -4 8
-2 5 3 -4 6 0 17 9 24 12 10 20 10 35 1 11 -7 19 -8 19 -2 0 5 -4 10 -10 10
-5 0 -10 5 -10 10 0 6 6 10 13 9 26 -3 36 2 31 16 -4 8 -2 15 4 15 5 0 9 8 8
18 -1 13 5 16 24 14 20 -3 22 -2 12 11 -10 12 -8 16 13 21 14 4 25 13 25 22 0
8 4 13 9 10 5 -3 12 1 15 10 5 14 9 14 23 3 15 -12 16 -11 11 9 -4 15 -2 22 8
22 7 0 11 6 8 14 -6 14 22 30 37 20 5 -3 9 0 9 5 0 6 -8 11 -17 12 -12 0 -13
2 -5 6 7 3 20 -1 29 -9 14 -11 16 -11 12 1 -3 8 7 27 23 41 15 15 28 34 28 42
0 9 7 21 15 28 13 11 14 10 8 -6 -6 -17 -5 -17 11 -5 9 8 15 20 12 27 -7 18
11 28 20 12 5 -8 14 1 26 27 9 22 18 34 18 27 0 -7 5 -10 10 -7 6 4 8 10 5 15
-3 5 6 12 21 16 18 5 22 9 13 15 -17 10 -8 20 19 22 11 0 19 4 16 8 -2 4 0 10
6 14 6 4 8 9 6 13 -2 4 3 14 12 22 14 13 15 12 9 -3 -5 -14 -4 -15 13 -4 11 6
20 17 20 24 0 7 7 13 15 13 18 0 19 11 3 29 -11 12 -10 13 6 7 13 -4 26 1 40
16 16 18 17 21 3 15 -9 -3 -17 -2 -17 4 0 5 7 12 16 16 8 3 13 12 10 19 -3 8
1 14 9 14 8 0 24 9 34 19 20 20 20 20 -2 24 -17 3 -16 5 7 6 20 1 27 5 23 15
-3 8 -1 17 6 19 9 3 9 7 -1 19 -11 13 -8 15 17 12 27 -3 29 -1 26 26 -3 24 0
30 14 30 21 0 35 25 24 43 -4 7 0 8 11 4 10 -4 15 -3 11 3 -9 14 17 38 35 32
13 -5 13 -3 0 13 -14 17 -13 18 7 13 19 -5 21 -3 13 18 -7 16 -6 24 1 24 7 0
6 6 -2 17 -12 15 -12 16 4 10 9 -3 18 -2 18 3 1 6 2 16 3 23 0 6 6 12 11 13
30 2 44 16 35 34 -14 26 -13 30 10 30 14 0 18 5 13 17 -5 12 -3 14 7 8 10 -6
12 -3 7 14 -4 17 -2 21 9 17 12 -4 12 -2 4 14 -9 16 -8 20 5 20 9 0 14 4 10 9
-3 6 2 14 11 19 11 6 13 11 5 16 -17 11 -14 39 4 32 12 -4 13 -2 5 13 -7 15
-6 18 8 17 9 0 16 4 15 11 -2 8 4 10 15 6 15 -6 16 -5 2 12 -14 17 -13 18 3
12 15 -6 16 -4 6 15 -9 18 -9 20 4 15 9 -3 18 1 21 9 8 22 7 26 -4 19 -15 -10
-12 6 6 26 14 16 14 18 -6 24 -20 6 -21 8 -4 26 9 10 12 19 6 19 -6 0 -9 7 -6
15 4 8 11 12 17 8 5 -3 7 -1 3 5 -3 5 0 13 6 15 7 3 -6 4 -30 2 -34 -3 -50
-10 -73 -36 -24 -27 -32 -31 -39 -19 -7 12 -12 10 -29 -9 -12 -13 -21 -28 -21
-33 0 -4 -5 -8 -10 -8 -16 0 170 270 265 385 23 28 44 57 47 66 4 9 45 70 93
135 102 139 113 160 97 176 -9 9 -12 8 -12 -4z m-308 -300 c-7 -7 -12 -8 -12
-2 0 6 3 14 7 17 3 4 9 5 12 2 2 -3 -1 -11 -7 -17z m-2 -22 c0 -2 -8 -10 -17
-17 -16 -13 -17 -12 -4 4 13 16 21 21 21 13z m-190 -240 c0 -2 -12 -12 -27
-21 l-28 -18 19 21 c17 20 36 29 36 18z m-309 -296 c-29 -33 -49 -64 -46 -70
3 -5 0 -7 -9 -4 -15 6 -63 -35 -58 -49 1 -4 -9 -13 -23 -19 -14 -6 -25 -17
-25 -23 0 -7 -9 -15 -20 -18 -15 -4 -9 7 22 42 69 75 203 207 207 204 2 -2
-19 -30 -48 -63z m-141 -50 c0 -5 -5 -10 -11 -10 -5 0 -7 5 -4 10 3 6 8 10 11
10 2 0 4 -4 4 -10z m-50 -80 c0 -5 -5 -10 -11 -10 -5 0 -7 5 -4 10 3 6 8 10
11 10 2 0 4 -4 4 -10z m520 -140 c0 -5 -2 -10 -4 -10 -3 0 -8 5 -11 10 -3 6
-1 10 4 10 6 0 11 -4 11 -10z m-860 -20 c0 -5 -5 -10 -11 -10 -5 0 -7 5 -4 10
3 6 8 10 11 10 2 0 4 -4 4 -10z m-107 -113 c-15 -19 -34 -32 -42 -29 -10 4 -9
8 5 15 11 6 26 18 34 28 8 11 19 19 23 19 5 0 -4 -15 -20 -33z m57 -31 c0 -3
-4 -8 -10 -11 -5 -3 -10 -1 -10 4 0 6 5 11 10 11 6 0 10 -2 10 -4z m-206 -125
c3 -5 -1 -14 -8 -20 -12 -10 -14 -9 -11 6 2 10 4 19 4 21 2 5 10 2 15 -7z
m-144 -166 c-7 -8 -17 -12 -22 -9 -6 4 -5 10 3 15 22 14 33 10 19 -6z m-170
-55 c0 -5 -5 -10 -11 -10 -5 0 -7 5 -4 10 3 6 8 10 11 10 2 0 4 -4 4 -10z
m-80 -70 c0 -5 -5 -10 -11 -10 -5 0 -7 5 -4 10 3 6 8 10 11 10 2 0 4 -4 4 -10z
m80 -69 c0 -5 -7 -11 -14 -14 -10 -4 -13 -1 -9 9 6 15 23 19 23 5z m880 -51
c0 -5 -5 -10 -11 -10 -5 0 -7 5 -4 10 3 6 8 10 11 10 2 0 4 -4 4 -10z m-1580
-454 c0 -10 -32 -36 -43 -36 -7 1 -1 10 12 20 23 20 31 24 31 16z m220 -810
c0 -3 -4 -8 -10 -11 -5 -3 -10 -1 -10 4 0 6 5 11 10 11 6 0 10 -2 10 -4z
m-1430 -1356 c0 -5 -4 -10 -9 -10 -6 0 -13 5 -16 10 -3 6 1 10 9 10 9 0 16 -4
16 -10z m-94 -77 c-10 -10 -19 5 -10 18 6 11 8 11 12 0 2 -7 1 -15 -2 -18z
m-1196 -153 c0 -5 -4 -10 -10 -10 -5 0 -10 5 -10 10 0 6 5 10 10 10 6 0 10 -4
10 -10z m957 -76 c-3 -3 -12 -4 -19 -1 -8 3 -5 6 6 6 11 1 17 -2 13 -5z m-127
-108 c0 -2 -7 -7 -16 -10 -8 -3 -12 -2 -9 4 6 10 25 14 25 6z m-450 -436 c0
-5 -4 -10 -10 -10 -5 0 -10 5 -10 10 0 6 5 10 10 10 6 0 10 -4 10 -10z m-94
-107 c-7 -7 -26 7 -26 19 0 6 6 6 15 -2 9 -7 13 -15 11 -17z m-266 -263 c0 -5
-5 -10 -11 -10 -5 0 -7 5 -4 10 3 6 8 10 11 10 2 0 4 -4 4 -10z m-70 -50 c0
-5 -2 -10 -4 -10 -3 0 -8 5 -11 10 -3 6 -1 10 4 10 6 0 11 -4 11 -10z"/>
<path d="M5095 9450 c-3 -5 -1 -10 4 -10 6 0 11 5 11 10 0 6 -2 10 -4 10 -3 0
-8 -4 -11 -10z"/>
<path d="M4719 9053 c-13 -16 -12 -17 4 -4 9 7 17 15 17 17 0 8 -8 3 -21 -13z"/>
<path d="M4740 9015 c-8 -9 -8 -15 -2 -15 12 0 26 19 19 26 -2 2 -10 -2 -17
-11z"/>
<path d="M4664 8982 c-11 -10 -25 -17 -32 -16 -7 1 -8 0 -2 -3 8 -3 7 -9 -1
-19 -19 -23 -4 -16 32 15 18 17 31 32 28 35 -3 3 -14 -2 -25 -12z"/>
<path d="M4509 8883 c-13 -16 -12 -17 4 -4 9 7 17 15 17 17 0 8 -8 3 -21 -13z"/>
<path d="M4215 8790 c-3 -5 -1 -10 4 -10 6 0 11 5 11 10 0 6 -2 10 -4 10 -3 0
-8 -4 -11 -10z"/>
<path d="M3480 6946 c0 -2 7 -7 16 -10 8 -3 12 -2 9 4 -6 10 -25 14 -25 6z"/>
<path d="M1000 6875 c-8 -9 -8 -15 -2 -15 12 0 26 19 19 26 -2 2 -10 -2 -17
-11z"/>
<path d="M3155 6660 c-3 -5 -1 -10 4 -10 6 0 11 5 11 10 0 6 -2 10 -4 10 -3 0
-8 -4 -11 -10z"/>
<path d="M1308 6033 c7 -3 16 -2 19 1 4 3 -2 6 -13 5 -11 0 -14 -3 -6 -6z"/>
<path d="M2360 5289 c0 -5 5 -7 10 -4 6 3 10 8 10 11 0 2 -4 4 -10 4 -5 0 -10
-5 -10 -11z"/>
<path d="M1405 5010 c-3 -5 -1 -10 4 -10 6 0 11 5 11 10 0 6 -2 10 -4 10 -3 0
-8 -4 -11 -10z"/>
</g>
</svg>
